<?xml version="1.0" encoding="utf-8"?>
<!-- Generator: Adobe Illustrator 25.0.0, SVG Export Plug-In . SVG Version: 6.00 Build 0)  -->
<svg version="1.1" id="Capa_1" xmlns="http://www.w3.org/2000/svg" xmlns:xlink="http://www.w3.org/1999/xlink" x="0px" y="0px"
	 viewBox="0 0 884.3 884.3" style="enable-background:new 0 0 884.3 884.3;" xml:space="preserve">
<style type="text/css">
	.st0{fill:#1997c6;}
</style>
<g>
	<g>
		<path class="st0" d="M26.5,248c0,113.7,0,439.8,0,439.8c0,19.7,11.6,37.6,29.6,45.7l333.4,148.6c16.5,7.4,35.2-4.7,35.2-22.8v-456
			c0-9.9-5.8-18.8-14.8-22.8L61.7,225.1C45.1,217.8,26.5,229.9,26.5,248z M214.9,471.9c21.6-1.4,40.9,26.6,43.2,62.5
			c2.3,35.9-13.4,66.1-35,67.4c-21.6,1.4-40.9-26.6-43.2-62.5S193.3,473.2,214.9,471.9z"/>
		<path class="st0" d="M857.8,687.7c0,0,0-326.1,0-439.8c0-18.1-18.7-30.2-35.2-22.8L474.5,380.5c-9,4-14.8,13-14.8,22.8v456
			c0,18.1,18.7,30.2,35.2,22.8l333.4-148.7C846.2,725.4,857.8,707.5,857.8,687.7z M626.4,675.7c-2.3,35.9-21.6,63.8-43.2,62.5
			c-21.6-1.4-37.2-31.6-35-67.4c2.3-35.9,21.6-63.8,43.2-62.5C613.1,609.7,628.7,639.9,626.4,675.7z M774.2,422.3
			c-2.3,35.9-21.6,63.8-43.2,62.5c-21.6-1.4-37.2-31.6-35-67.4c2.3-35.9,21.6-63.8,43.2-62.5C760.8,356.2,776.5,386.4,774.2,422.3z"
			/>
		<path class="st0" d="M79.1,194.6L432,352c6.5,2.9,13.9,2.9,20.4,0l352.9-157.4c20-8.9,19.7-37.4-0.5-45.9L461.6,3.9
			C455.4,1.3,448.8,0,442.2,0c-6.6,0-13.2,1.3-19.4,3.9L79.5,148.7C59.4,157.2,59.1,185.7,79.1,194.6z M632.6,130.3
			c35.9-0.2,65.1,17.3,65.2,39c0.1,21.7-28.9,39.5-64.8,39.6c-35.9,0.2-65.1-17.3-65.2-39C567.7,148.2,596.7,130.4,632.6,130.3z
			 M442,130.3c35.9-0.2,65.1,17.3,65.2,39c0.1,21.7-28.9,39.5-64.8,39.6c-35.9,0.2-65.1-17.3-65.2-39
			C377.1,148.2,406.1,130.4,442,130.3z M251.4,130.3c35.9-0.2,65.1,17.3,65.2,39c0.1,21.7-28.9,39.5-64.8,39.6
			c-35.9,0.1-65.1-17.3-65.2-39S215.5,130.4,251.4,130.3z"/>
	</g>
</g>
</svg>
